<svg width="155" height="22" viewBox="0 0 155 22" xmlns="http://www.w3.org/2000/svg"><g fill="#f1f1f1" fill-rule="evenodd"><path d="M68.993 3.837v17.76h-2.8V3.837H61.34v-2.83h12.535v2.83zM47.354 3.812V1.006h6.216c4.795 0 5.747 3.786 5.747 5.606v.953c0 1.502-.664 4.303-3.464 5.314l4.105 8.718h-3.154l-3.928-8.38h-2.713v-2.772l3.407-.021c1.067 0 2.916-.376 2.916-2.888V6.7c0-2.514-1.904-2.887-2.975-2.887h-6.157zM6.355 21.925c-3.728 0-6.124-2.484-6.124-5.719h2.801c0 1.878 1.387 2.918 3.293 2.918 2.164 0 3.551-1.242 3.551-2.975 0-1.33-.75-2.195-1.791-2.8-.837-.492-2.193-1.214-4.705-2.455-1.645-.81-2.804-2.6-2.804-4.678 0-3.12 2.4-5.343 5.806-5.343 3.551 0 6.007 2.338 6.007 5.573H9.56c0-1.82-1.357-2.83-3.178-2.83-1.673 0-3.032.953-3.032 2.656 0 .983.577 1.792 1.588 2.312 1.648.836 3.147 1.53 4.476 2.28 2.109 1.126 3.235 3.004 3.235 5.342 0 3.293-2.743 5.72-6.294 5.72M15.7 21.597V1.007h3.235l4.157 10.02 4.101-10.02h3.292v20.59h-2.827V7.129l-3.44 8.346h-2.25L18.53 7.1v14.496zM47.826 21.597h-2.86l-1.444-5.603h-6.21l-1.472 5.603h-2.887l5.37-20.59h4.043l5.46 20.59zM40.433 4.039l-2.456 9.184h4.824l-2.368-9.184zM91.92 21.597V1.007h2.8v17.818h6.882v2.772zM104.707 21.597h2.832V1.007h-2.832zM120.348 21.597l-6.093-14.295v14.295h-2.803V1.007h3.091l6.182 14.526V1.007h2.772v20.59zM133.607 21.597h-6.325V1.004h6.21c4.764 0 5.689 3.813 5.689 5.632v9.3c0 1.849-.925 5.66-5.574 5.66zm2.8-14.874c0-2.542-1.848-2.917-2.915-2.917h-3.407v15.02h3.463c1.07 0 2.859-.406 2.859-2.919V6.723zM148.045 21.886c-3.725 0-6.123-2.484-6.123-5.719h2.8c0 1.878 1.388 2.918 3.296 2.918 2.165 0 3.55-1.241 3.55-2.975 0-1.329-.75-2.195-1.79-2.8-.837-.492-2.195-1.214-4.707-2.455-1.645-.81-2.802-2.6-2.802-4.678 0-3.12 2.396-5.343 5.804-5.343 3.553 0 6.008 2.338 6.008 5.573h-2.83c0-1.82-1.357-2.83-3.178-2.83-1.673 0-3.03.953-3.03 2.657 0 .982.575 1.791 1.586 2.31 1.648.837 3.149 1.53 4.477 2.281 2.108 1.126 3.234 3.004 3.234 5.342 0 3.293-2.743 5.72-6.295 5.72M82.994 21.596h-6.355V1.005h6.21c4.764 0 5.546 3.695 5.546 5.515v.349c0 1.039-.434 3.03-1.935 4.1 1.818 1.04 2.225 3.262 2.225 4.332v.691c0 1.82-.956 5.604-5.691 5.604zm2.57-15.047c0-2.484-1.733-2.742-2.773-2.742h-3.349V9.61h3.524c1.153 0 2.597-.345 2.597-2.8v-.261zm.347 8.78c0-2.511-1.645-2.946-2.83-2.946h-3.639v6.413h3.494c1.069 0 2.975-.349 2.975-2.86v-.607z"/></g></svg>