<svg id="Laag_1" data-name="Laag 1" xmlns="http://www.w3.org/2000/svg" viewBox="0 0 42.06 56.69"><defs><style>.cls-1{fill:#b3b3b3;}.cls-2{fill:#1a171b;}.cls-3{fill:#fff;}</style></defs><rect class="cls-1" x="1.03" y="1.62" width="39.72" height="28.72"/><path class="cls-2" d="M26.49,20.89V43.56a.45.45,0,0,0,.45.44.43.43,0,0,0,.44-.44l0-22.67a.44.44,0,0,0-.45-.44.45.45,0,0,0-.45.44" transform="translate(-6.49)"/><path class="cls-2" d="M21.88,22.45,33.15,42a.45.45,0,0,0,.61.17.46.46,0,0,0,.16-.62L22.65,22a.44.44,0,0,0-.61-.16.45.45,0,0,0-.16.61" transform="translate(-6.49)"/><path class="cls-2" d="M18.59,26.05,38.15,37.34a.44.44,0,0,0,.61-.17.43.43,0,0,0-.16-.6L19,25.29a.43.43,0,0,0-.61.16.43.43,0,0,0,.16.6" transform="translate(-6.49)"/><path class="cls-2" d="M15.7,37.34,35.41,26a.45.45,0,0,0-.45-.77L15.25,36.57a.45.45,0,0,0,.45.77" transform="translate(-6.49)"/><path class="cls-2" d="M20.71,42,32.06,22.27a.44.44,0,1,0-.77-.43L19.94,41.56a.45.45,0,0,0,.16.62.45.45,0,0,0,.61-.17" transform="translate(-6.49)"/><path class="cls-3" d="M36.62,30.35a9.7,9.7,0,1,1-9.69-9.7,9.69,9.69,0,0,1,9.69,9.7" transform="translate(-6.49)"/><path class="cls-2" d="M36.62,30.35h-.47a9.22,9.22,0,1,1-2.7-6.53,9.16,9.16,0,0,1,2.7,6.53h1A10.17,10.17,0,1,0,26.93,40.52,10.17,10.17,0,0,0,37.1,30.35Z" transform="translate(-6.49)"/><path class="cls-2" d="M6.49,0V56.69H48.56V0ZM46.94,1.71V29.27H8.11V1.71ZM8.11,55.08V30.35H46.94V55.08Z" transform="translate(-6.49)"/><path class="cls-2" d="M26.49,17.2V43.63a.45.45,0,1,0,.89,0V17.2a.45.45,0,0,0-.89,0" transform="translate(-6.49)"/><path class="cls-2" d="M19.94,19.19l13.22,22.9a.44.44,0,0,0,.61.16.45.45,0,0,0,.16-.61L20.71,18.74a.45.45,0,1,0-.77.45" transform="translate(-6.49)"/><path class="cls-2" d="M15.26,24.19l22.9,13.22a.45.45,0,0,0,.61-.16.45.45,0,0,0-.16-.61L15.71,23.43a.42.42,0,0,0-.61.16.43.43,0,0,0,.16.6" transform="translate(-6.49)"/><path class="cls-2" d="M15.71,37.41l22.9-13.22a.44.44,0,0,0,.16-.6.44.44,0,0,0-.61-.17L15.26,36.64a.45.45,0,0,0-.16.61.44.44,0,0,0,.61.16" transform="translate(-6.49)"/><path class="cls-2" d="M20.71,42.09l13.22-22.9a.44.44,0,1,0-.77-.43L19.94,41.64a.45.45,0,0,0,.16.61.44.44,0,0,0,.61-.16" transform="translate(-6.49)"/><path class="cls-3" d="M36.63,30.42a9.7,9.7,0,1,1-9.7-9.7,9.69,9.69,0,0,1,9.7,9.7" transform="translate(-6.49)"/><path class="cls-2" d="M36.63,30.42h-.47a9.25,9.25,0,1,1-2.71-6.52,9.19,9.19,0,0,1,2.71,6.52h.94A10.17,10.17,0,1,0,26.93,40.59,10.17,10.17,0,0,0,37.1,30.42Z" transform="translate(-6.49)"/><path class="cls-1" d="M17.71,30.35a9.22,9.22,0,1,1,18.44,0Z" transform="translate(-6.49)"/></svg>