<svg id="Laag_1" data-name="Laag 1" xmlns="http://www.w3.org/2000/svg" viewBox="0 0 42.06 56.6"><defs><style>.cls-1{fill:#1a171b;}.cls-2{fill:#fff;}</style></defs><path class="cls-1" d="M26.57,20.74l0,22.66a.45.45,0,0,0,.45.44.44.44,0,0,0,.45-.44V20.74a.45.45,0,1,0-.89,0" transform="translate(-6.57)"/><path class="cls-1" d="M22,22.29,33.23,41.86a.45.45,0,0,0,.77-.45L22.73,21.84a.46.46,0,0,0-.62-.16.44.44,0,0,0-.15.61" transform="translate(-6.57)"/><path class="cls-1" d="M18.66,25.89,38.23,37.18a.45.45,0,0,0,.61-.17.44.44,0,0,0-.17-.6L19.11,25.13a.43.43,0,0,0-.61.16.45.45,0,0,0,.16.6" transform="translate(-6.57)"/><path class="cls-1" d="M15.78,37.18,35.49,25.79a.44.44,0,0,0,.16-.6A.43.43,0,0,0,35,25L15.33,36.41a.43.43,0,0,0-.16.6.44.44,0,0,0,.61.17" transform="translate(-6.57)"/><path class="cls-1" d="M20.78,41.86,32.13,22.12a.45.45,0,0,0-.16-.61.46.46,0,0,0-.61.17L20,41.41a.45.45,0,1,0,.77.45" transform="translate(-6.57)"/><path class="cls-2" d="M36.7,30.19a9.7,9.7,0,1,1-9.7-9.7,9.69,9.69,0,0,1,9.7,9.7" transform="translate(-6.57)"/><path class="cls-1" d="M36.7,30.19h-.48a9.22,9.22,0,1,1-2.7-6.53,9.18,9.18,0,0,1,2.7,6.53h1A10.17,10.17,0,1,0,27,40.36,10.17,10.17,0,0,0,37.17,30.19Z" transform="translate(-6.57)"/><path class="cls-1" d="M6.57,0V56.6H48.63V0ZM47,1.62V29.14H8.19V1.62ZM8.19,55V30.22H47V55Z" transform="translate(-6.57)"/><path class="cls-1" d="M26.56,17.05V43.47a.45.45,0,0,0,.45.45.44.44,0,0,0,.44-.45V17.05A.44.44,0,0,0,27,16.6a.45.45,0,0,0-.45.45" transform="translate(-6.57)"/><path class="cls-1" d="M20,19l13.21,22.9a.45.45,0,0,0,.61.17.46.46,0,0,0,.16-.62L20.79,18.59a.45.45,0,0,0-.62-.16A.43.43,0,0,0,20,19" transform="translate(-6.57)"/><path class="cls-1" d="M15.33,24l22.9,13.23a.44.44,0,0,0,.61-.17.43.43,0,0,0-.16-.6L15.78,23.27a.43.43,0,0,0-.61.16.44.44,0,0,0,.16.6" transform="translate(-6.57)"/><path class="cls-1" d="M15.78,37.26,38.68,24a.44.44,0,0,0,.16-.6.42.42,0,0,0-.61-.16L15.33,36.49a.44.44,0,0,0-.16.6.45.45,0,0,0,.61.17" transform="translate(-6.57)"/><path class="cls-1" d="M20.79,41.93,34,19a.44.44,0,0,0-.16-.6.45.45,0,0,0-.61.17L20,41.48a.45.45,0,1,0,.77.45" transform="translate(-6.57)"/><path class="cls-2" d="M36.7,30.27A9.7,9.7,0,1,1,27,20.57a9.69,9.69,0,0,1,9.69,9.7" transform="translate(-6.57)"/><path class="cls-1" d="M36.7,30.27h-.47a9.24,9.24,0,1,1-2.7-6.53,9.18,9.18,0,0,1,2.7,6.53h1A10.17,10.17,0,1,0,27,40.44,10.17,10.17,0,0,0,37.18,30.27Z" transform="translate(-6.57)"/></svg>